<svg width="375" height="841" viewBox="0 0 375 841" fill="none" xmlns="http://www.w3.org/2000/svg">
<rect width="375" height="841" fill="#F1F3FA"/>
<path d="M17.7085 24.0576C17.7085 22.4307 18.0412 21.1637 18.7066 20.2568C19.3765 19.3454 20.2993 18.8896 21.4751 18.8896C22.6509 18.8896 23.5715 19.3454 24.2368 20.2568C24.9022 21.1683 25.2349 22.4398 25.2349 24.0713C25.2349 25.6982 24.9022 26.9674 24.2368 27.8789C23.576 28.7904 22.6555 29.2461 21.4751 29.2461C20.2902 29.2461 19.3651 28.7904 18.6997 27.8789C18.0389 26.9674 17.7085 25.6937 17.7085 24.0576ZM19.4927 24.0576C19.4927 25.2607 19.6659 26.1836 20.0122 26.8262C20.3586 27.4642 20.8462 27.7832 21.4751 27.7832C22.104 27.7832 22.5894 27.4642 22.9312 26.8262C23.2775 26.1836 23.4507 25.2607 23.4507 24.0576C23.4507 22.8636 23.2775 21.9499 22.9312 21.3164C22.5848 20.6784 22.0995 20.3594 21.4751 20.3594C20.8508 20.3594 20.3631 20.6784 20.0122 21.3164C19.6659 21.9544 19.4927 22.8682 19.4927 24.0576ZM26.7586 22.3555C26.7586 21.3438 27.1004 20.5143 27.7839 19.8672C28.4721 19.2155 29.3517 18.8896 30.4226 18.8896C31.1427 18.8896 31.7807 19.056 32.3367 19.3887C32.8927 19.7214 33.337 20.2044 33.6697 20.8379C34.1345 21.6628 34.367 22.7018 34.367 23.9551C34.367 25.6139 34.0138 26.9105 33.3074 27.8447C32.601 28.7744 31.6212 29.2393 30.3679 29.2393C29.4656 29.2393 28.6977 28.9954 28.0642 28.5078C27.4308 28.0156 27.0411 27.3639 26.8953 26.5527H28.6521C28.766 26.9264 28.9757 27.2227 29.281 27.4414C29.5909 27.6556 29.9578 27.7627 30.3816 27.7627C31.1017 27.7627 31.6645 27.446 32.0701 26.8125C32.4757 26.1745 32.6785 25.2904 32.6785 24.1602H32.617H32.5828H32.5623C32.3298 24.6296 31.9903 24.9941 31.5437 25.2539C31.0971 25.5091 30.5844 25.6367 30.0056 25.6367C29.0668 25.6367 28.2898 25.3268 27.6746 24.707C27.0639 24.0872 26.7586 23.3034 26.7586 22.3555ZM28.488 22.3008C28.488 22.8659 28.6703 23.3307 29.0349 23.6953C29.3995 24.0553 29.8643 24.2354 30.4295 24.2354C30.9946 24.2354 31.4617 24.0553 31.8308 23.6953C32.2 23.3353 32.3845 22.8796 32.3845 22.3281C32.3845 21.7721 32.1977 21.305 31.824 20.9268C31.4503 20.5485 30.9877 20.3594 30.4363 20.3594C29.8849 20.3594 29.4223 20.5462 29.0486 20.9199C28.6749 21.2891 28.488 21.7493 28.488 22.3008ZM36.1982 28.0635C36.1982 27.749 36.3008 27.4915 36.5059 27.291C36.7109 27.0859 36.973 26.9834 37.292 26.9834C37.6156 26.9834 37.8776 27.0859 38.0781 27.291C38.2832 27.4915 38.3857 27.749 38.3857 28.0635C38.3857 28.3734 38.2832 28.6309 38.0781 28.8359C37.8776 29.041 37.6156 29.1436 37.292 29.1436C36.973 29.1436 36.7109 29.041 36.5059 28.8359C36.3008 28.6309 36.1982 28.3734 36.1982 28.0635ZM36.1982 22.9434C36.1982 22.6289 36.3008 22.3714 36.5059 22.1709C36.7109 21.9658 36.973 21.8633 37.292 21.8633C37.6156 21.8633 37.8776 21.9658 38.0781 22.1709C38.2832 22.3714 38.3857 22.6289 38.3857 22.9434C38.3857 23.2533 38.2832 23.5107 38.0781 23.7158C37.8776 23.9163 37.6156 24.0166 37.292 24.0166C36.973 24.0166 36.7109 23.9163 36.5059 23.7158C36.3008 23.5107 36.1982 23.2533 36.1982 22.9434ZM40.0051 27.1611V25.5889C40.8072 24.1123 42.147 21.9613 44.0246 19.1357H46.5129V25.6709H47.8459V27.1611H46.5129V29H44.8245V27.1611H40.0051ZM41.6389 25.7119H44.8518V20.5713H44.7561C43.6897 22.1481 42.6506 23.8275 41.6389 25.6094V25.7119ZM49.0757 22.6357V20.9404L51.6528 19.1357H53.4096V29H51.646V20.9131H51.5298L49.0757 22.6357Z" fill="#171615"/>
<path opacity="0.35" d="M335.5 19.6667C335.5 18.47 336.47 17.5 337.667 17.5H354.037C355.233 17.5 356.203 18.47 356.203 19.6667V25.3333C356.203 26.5299 355.233 27.5 354.037 27.5H337.667C336.47 27.5 335.5 26.53 335.5 25.3333V19.6667Z" stroke="#171615"/>
<path opacity="0.4" d="M357.691 20.5588V24.4412C358.485 24.1124 359.002 23.3475 359.002 22.5C359.002 21.6526 358.485 20.8877 357.691 20.5588Z" fill="#171615"/>
<path d="M336.973 20.2745C336.973 19.5381 337.57 18.9412 338.306 18.9412H353.397C354.133 18.9412 354.73 19.5381 354.73 20.2745V24.7255C354.73 25.4619 354.133 26.0588 353.397 26.0588H338.306C337.57 26.0588 336.973 25.4619 336.973 24.7255V20.2745Z" fill="#171615"/>
<path fill-rule="evenodd" clip-rule="evenodd" d="M322.5 19.2845C324.677 19.2846 326.77 20.1387 328.347 21.6703C328.466 21.7885 328.656 21.787 328.773 21.6669L329.908 20.4966C329.967 20.4357 330 20.3532 330 20.2673C330 20.1815 329.966 20.0994 329.906 20.0392C325.766 15.9869 319.234 15.9869 315.095 20.0392C315.035 20.0993 315.001 20.1814 315 20.2673C314.999 20.3531 315.032 20.4356 315.092 20.4966L316.227 21.6669C316.344 21.7872 316.534 21.7887 316.653 21.6703C318.23 20.1386 320.324 19.2845 322.5 19.2845ZM322.502 23.0921C323.698 23.092 324.851 23.546 325.737 24.3657C325.857 24.4821 326.046 24.4796 326.163 24.36L327.297 23.1897C327.356 23.1283 327.39 23.0451 327.389 22.9585C327.388 22.872 327.353 22.7894 327.292 22.7293C324.593 20.1649 320.413 20.1649 317.714 22.7293C317.653 22.7894 317.618 22.872 317.617 22.9586C317.616 23.0451 317.65 23.1284 317.71 23.1897L318.843 24.36C318.96 24.4796 319.149 24.4821 319.269 24.3657C320.155 23.5465 321.307 23.0926 322.502 23.0921ZM324.77 25.6539C324.772 25.7407 324.739 25.8243 324.678 25.8851L322.716 27.9071C322.659 27.9665 322.58 28 322.499 28C322.417 28 322.338 27.9665 322.281 27.9071L320.319 25.8851C320.258 25.8243 320.225 25.7406 320.227 25.6538C320.228 25.567 320.265 25.4849 320.328 25.4267C321.581 24.3444 323.416 24.3444 324.669 25.4267C324.732 25.4849 324.769 25.5671 324.77 25.6539Z" fill="#171615"/>
<path fill-rule="evenodd" clip-rule="evenodd" d="M309 17H308C307.448 17 307 17.4617 307 18.0312V26.9688C307 27.5383 307.448 28 308 28H309C309.552 28 310 27.5383 310 26.9688V18.0312C310 17.4617 309.552 17 309 17ZM303.332 19.4062H304.332C304.884 19.4062 305.332 19.868 305.332 20.4375V26.9687C305.332 27.5383 304.884 28 304.332 28H303.332C302.78 28 302.332 27.5383 302.332 26.9687V20.4375C302.332 19.868 302.78 19.4062 303.332 19.4062ZM299.668 21.8125H298.668C298.116 21.8125 297.668 22.2742 297.668 22.8438V26.9688C297.668 27.5383 298.116 28 298.668 28H299.668C300.22 28 300.668 27.5383 300.668 26.9688V22.8438C300.668 22.2742 300.22 21.8125 299.668 21.8125ZM295 23.875H294C293.448 23.875 293 24.3367 293 24.9062V26.9688C293 27.5383 293.448 28 294 28H295C295.552 28 296 27.5383 296 26.9688V24.9062C296 24.3367 295.552 23.875 295 23.875Z" fill="#171615"/>
<path d="M97.4414 477.781H99.6289L103.74 488.748L107.842 477.781H110.029L104.6 492H102.861L97.4414 477.781ZM96.4453 477.781H98.5254L98.8867 487.273V492H96.4453V477.781ZM108.945 477.781H111.035V492H108.584V487.273L108.945 477.781ZM113.262 486.834V486.609C113.262 485.848 113.372 485.141 113.594 484.49C113.815 483.833 114.134 483.263 114.551 482.781C114.974 482.293 115.488 481.915 116.094 481.648C116.706 481.375 117.396 481.238 118.164 481.238C118.939 481.238 119.629 481.375 120.234 481.648C120.846 481.915 121.364 482.293 121.787 482.781C122.21 483.263 122.533 483.833 122.754 484.49C122.975 485.141 123.086 485.848 123.086 486.609V486.834C123.086 487.596 122.975 488.302 122.754 488.953C122.533 489.604 122.21 490.174 121.787 490.662C121.364 491.144 120.85 491.521 120.244 491.795C119.639 492.062 118.952 492.195 118.184 492.195C117.409 492.195 116.715 492.062 116.104 491.795C115.498 491.521 114.984 491.144 114.561 490.662C114.137 490.174 113.815 489.604 113.594 488.953C113.372 488.302 113.262 487.596 113.262 486.834ZM115.615 486.609V486.834C115.615 487.309 115.664 487.758 115.762 488.182C115.859 488.605 116.012 488.976 116.221 489.295C116.429 489.614 116.696 489.865 117.021 490.047C117.347 490.229 117.734 490.32 118.184 490.32C118.62 490.32 118.997 490.229 119.316 490.047C119.642 489.865 119.909 489.614 120.117 489.295C120.326 488.976 120.479 488.605 120.576 488.182C120.68 487.758 120.732 487.309 120.732 486.834V486.609C120.732 486.141 120.68 485.698 120.576 485.281C120.479 484.858 120.322 484.484 120.107 484.158C119.899 483.833 119.632 483.579 119.307 483.396C118.988 483.208 118.607 483.113 118.164 483.113C117.721 483.113 117.337 483.208 117.012 483.396C116.693 483.579 116.429 483.833 116.221 484.158C116.012 484.484 115.859 484.858 115.762 485.281C115.664 485.698 115.615 486.141 115.615 486.609ZM130.986 489.139C130.986 488.904 130.928 488.693 130.811 488.504C130.693 488.309 130.469 488.133 130.137 487.977C129.811 487.82 129.329 487.677 128.691 487.547C128.132 487.423 127.617 487.277 127.148 487.107C126.686 486.932 126.289 486.72 125.957 486.473C125.625 486.225 125.368 485.932 125.186 485.594C125.003 485.255 124.912 484.865 124.912 484.422C124.912 483.992 125.007 483.585 125.195 483.201C125.384 482.817 125.654 482.479 126.006 482.186C126.357 481.893 126.784 481.661 127.285 481.492C127.793 481.323 128.359 481.238 128.984 481.238C129.87 481.238 130.628 481.388 131.26 481.688C131.898 481.98 132.386 482.381 132.725 482.889C133.063 483.39 133.232 483.956 133.232 484.588H130.879C130.879 484.308 130.807 484.048 130.664 483.807C130.527 483.559 130.319 483.361 130.039 483.211C129.759 483.055 129.408 482.977 128.984 482.977C128.581 482.977 128.245 483.042 127.979 483.172C127.718 483.296 127.523 483.458 127.393 483.66C127.269 483.862 127.207 484.083 127.207 484.324C127.207 484.5 127.24 484.66 127.305 484.803C127.376 484.939 127.493 485.066 127.656 485.184C127.819 485.294 128.04 485.398 128.32 485.496C128.607 485.594 128.965 485.688 129.395 485.779C130.202 485.949 130.895 486.167 131.475 486.434C132.061 486.694 132.51 487.033 132.822 487.449C133.135 487.859 133.291 488.38 133.291 489.012C133.291 489.48 133.19 489.91 132.988 490.301C132.793 490.685 132.507 491.02 132.129 491.307C131.751 491.587 131.299 491.805 130.771 491.961C130.251 492.117 129.665 492.195 129.014 492.195C128.057 492.195 127.246 492.026 126.582 491.688C125.918 491.342 125.413 490.903 125.068 490.369C124.73 489.829 124.561 489.269 124.561 488.689H126.836C126.862 489.126 126.982 489.474 127.197 489.734C127.419 489.988 127.692 490.174 128.018 490.291C128.35 490.402 128.691 490.457 129.043 490.457C129.466 490.457 129.821 490.402 130.107 490.291C130.394 490.174 130.612 490.018 130.762 489.822C130.911 489.62 130.986 489.393 130.986 489.139ZM140.195 481.434V483.152H134.238V481.434H140.195ZM135.957 478.846H138.311V489.08C138.311 489.406 138.356 489.656 138.447 489.832C138.545 490.001 138.678 490.115 138.848 490.174C139.017 490.232 139.215 490.262 139.443 490.262C139.606 490.262 139.762 490.252 139.912 490.232C140.062 490.213 140.182 490.193 140.273 490.174L140.283 491.971C140.088 492.029 139.86 492.081 139.6 492.127C139.346 492.173 139.053 492.195 138.721 492.195C138.18 492.195 137.702 492.101 137.285 491.912C136.868 491.717 136.543 491.401 136.309 490.965C136.074 490.529 135.957 489.949 135.957 489.227V478.846ZM147.969 489.881V484.842C147.969 484.464 147.9 484.139 147.764 483.865C147.627 483.592 147.419 483.38 147.139 483.23C146.865 483.081 146.52 483.006 146.104 483.006C145.719 483.006 145.387 483.071 145.107 483.201C144.827 483.331 144.609 483.507 144.453 483.729C144.297 483.95 144.219 484.201 144.219 484.48H141.875C141.875 484.064 141.976 483.66 142.178 483.27C142.38 482.879 142.673 482.531 143.057 482.225C143.441 481.919 143.9 481.678 144.434 481.502C144.967 481.326 145.566 481.238 146.23 481.238C147.025 481.238 147.728 481.372 148.34 481.639C148.958 481.906 149.443 482.309 149.795 482.85C150.153 483.383 150.332 484.054 150.332 484.861V489.559C150.332 490.04 150.365 490.473 150.43 490.857C150.501 491.235 150.602 491.564 150.732 491.844V492H148.32C148.21 491.746 148.122 491.424 148.057 491.033C147.998 490.636 147.969 490.252 147.969 489.881ZM148.311 485.574L148.33 487.029H146.641C146.204 487.029 145.82 487.072 145.488 487.156C145.156 487.234 144.88 487.352 144.658 487.508C144.437 487.664 144.271 487.853 144.16 488.074C144.049 488.296 143.994 488.546 143.994 488.826C143.994 489.106 144.059 489.363 144.189 489.598C144.32 489.826 144.508 490.005 144.756 490.135C145.01 490.265 145.316 490.33 145.674 490.33C146.156 490.33 146.576 490.232 146.934 490.037C147.298 489.835 147.585 489.591 147.793 489.305C148.001 489.012 148.112 488.735 148.125 488.475L148.887 489.52C148.809 489.786 148.675 490.073 148.486 490.379C148.298 490.685 148.05 490.978 147.744 491.258C147.445 491.531 147.083 491.756 146.66 491.932C146.243 492.107 145.762 492.195 145.215 492.195C144.525 492.195 143.91 492.059 143.369 491.785C142.829 491.505 142.406 491.131 142.1 490.662C141.794 490.187 141.641 489.65 141.641 489.051C141.641 488.491 141.745 487.996 141.953 487.566C142.168 487.13 142.48 486.766 142.891 486.473C143.307 486.18 143.815 485.958 144.414 485.809C145.013 485.652 145.697 485.574 146.465 485.574H148.311ZM155.977 492H153.623V480.418C153.623 479.63 153.77 478.969 154.062 478.436C154.362 477.895 154.788 477.488 155.342 477.215C155.895 476.935 156.549 476.795 157.305 476.795C157.539 476.795 157.77 476.811 157.998 476.844C158.226 476.87 158.447 476.912 158.662 476.971L158.604 478.787C158.473 478.755 158.33 478.732 158.174 478.719C158.024 478.706 157.861 478.699 157.686 478.699C157.327 478.699 157.018 478.768 156.758 478.904C156.504 479.035 156.309 479.227 156.172 479.48C156.042 479.734 155.977 480.047 155.977 480.418V492ZM158.154 481.434V483.152H152.002V481.434H158.154ZM162.383 481.434V492H160.02V481.434H162.383ZM159.863 478.66C159.863 478.302 159.98 478.006 160.215 477.771C160.456 477.531 160.788 477.41 161.211 477.41C161.628 477.41 161.956 477.531 162.197 477.771C162.438 478.006 162.559 478.302 162.559 478.66C162.559 479.012 162.438 479.305 162.197 479.539C161.956 479.773 161.628 479.891 161.211 479.891C160.788 479.891 160.456 479.773 160.215 479.539C159.98 479.305 159.863 479.012 159.863 478.66ZM173.135 490.125V492H165.264V490.125H173.135ZM172.92 482.898L166.064 492H164.541V490.486L171.357 481.434H172.92V482.898ZM172.012 481.434V483.309H164.658V481.434H172.012ZM181.377 489.51V481.434H183.74V492H181.514L181.377 489.51ZM181.709 487.312L182.5 487.293C182.5 488.003 182.422 488.657 182.266 489.256C182.109 489.848 181.868 490.366 181.543 490.809C181.217 491.245 180.801 491.587 180.293 491.834C179.785 492.075 179.176 492.195 178.467 492.195C177.952 492.195 177.48 492.12 177.051 491.971C176.621 491.821 176.25 491.59 175.938 491.277C175.632 490.965 175.394 490.558 175.225 490.057C175.055 489.555 174.971 488.956 174.971 488.26V481.434H177.324V488.279C177.324 488.663 177.37 488.986 177.461 489.246C177.552 489.5 177.676 489.705 177.832 489.861C177.988 490.018 178.171 490.128 178.379 490.193C178.587 490.258 178.809 490.291 179.043 490.291C179.714 490.291 180.241 490.161 180.625 489.9C181.016 489.633 181.292 489.275 181.455 488.826C181.624 488.377 181.709 487.872 181.709 487.312ZM188.516 483.445V492H186.162V481.434H188.408L188.516 483.445ZM191.748 481.365L191.729 483.553C191.585 483.527 191.429 483.507 191.26 483.494C191.097 483.481 190.934 483.475 190.771 483.475C190.368 483.475 190.013 483.533 189.707 483.65C189.401 483.761 189.144 483.924 188.936 484.139C188.734 484.347 188.577 484.601 188.467 484.9C188.356 485.2 188.291 485.535 188.271 485.906L187.734 485.945C187.734 485.281 187.799 484.666 187.93 484.1C188.06 483.533 188.255 483.035 188.516 482.605C188.783 482.176 189.115 481.84 189.512 481.6C189.915 481.359 190.381 481.238 190.908 481.238C191.051 481.238 191.204 481.251 191.367 481.277C191.536 481.303 191.663 481.333 191.748 481.365ZM198.438 477.781H203.467C204.548 477.781 205.469 477.944 206.23 478.27C206.992 478.595 207.575 479.077 207.979 479.715C208.389 480.346 208.594 481.128 208.594 482.059C208.594 482.768 208.464 483.393 208.203 483.934C207.943 484.474 207.575 484.93 207.1 485.301C206.624 485.665 206.058 485.949 205.4 486.15L204.658 486.512H200.137L200.117 484.568H203.506C204.092 484.568 204.58 484.464 204.971 484.256C205.361 484.048 205.654 483.764 205.85 483.406C206.051 483.042 206.152 482.632 206.152 482.176C206.152 481.681 206.055 481.251 205.859 480.887C205.671 480.516 205.378 480.232 204.98 480.037C204.583 479.835 204.079 479.734 203.467 479.734H200.889V492H198.438V477.781ZM206.553 492L203.213 485.613L205.781 485.604L209.17 491.873V492H206.553ZM216.758 489.881V484.842C216.758 484.464 216.689 484.139 216.553 483.865C216.416 483.592 216.208 483.38 215.928 483.23C215.654 483.081 215.309 483.006 214.893 483.006C214.508 483.006 214.176 483.071 213.896 483.201C213.617 483.331 213.398 483.507 213.242 483.729C213.086 483.95 213.008 484.201 213.008 484.48H210.664C210.664 484.064 210.765 483.66 210.967 483.27C211.169 482.879 211.462 482.531 211.846 482.225C212.23 481.919 212.689 481.678 213.223 481.502C213.757 481.326 214.355 481.238 215.02 481.238C215.814 481.238 216.517 481.372 217.129 481.639C217.747 481.906 218.232 482.309 218.584 482.85C218.942 483.383 219.121 484.054 219.121 484.861V489.559C219.121 490.04 219.154 490.473 219.219 490.857C219.29 491.235 219.391 491.564 219.521 491.844V492H217.109C216.999 491.746 216.911 491.424 216.846 491.033C216.787 490.636 216.758 490.252 216.758 489.881ZM217.1 485.574L217.119 487.029H215.43C214.993 487.029 214.609 487.072 214.277 487.156C213.945 487.234 213.669 487.352 213.447 487.508C213.226 487.664 213.06 487.853 212.949 488.074C212.839 488.296 212.783 488.546 212.783 488.826C212.783 489.106 212.848 489.363 212.979 489.598C213.109 489.826 213.298 490.005 213.545 490.135C213.799 490.265 214.105 490.33 214.463 490.33C214.945 490.33 215.365 490.232 215.723 490.037C216.087 489.835 216.374 489.591 216.582 489.305C216.79 489.012 216.901 488.735 216.914 488.475L217.676 489.52C217.598 489.786 217.464 490.073 217.275 490.379C217.087 490.685 216.839 490.978 216.533 491.258C216.234 491.531 215.872 491.756 215.449 491.932C215.033 492.107 214.551 492.195 214.004 492.195C213.314 492.195 212.699 492.059 212.158 491.785C211.618 491.505 211.195 491.131 210.889 490.662C210.583 490.187 210.43 489.65 210.43 489.051C210.43 488.491 210.534 487.996 210.742 487.566C210.957 487.13 211.27 486.766 211.68 486.473C212.096 486.18 212.604 485.958 213.203 485.809C213.802 485.652 214.486 485.574 215.254 485.574H217.1ZM223.906 477V492H221.562V477H223.906ZM223.496 486.326L222.734 486.316C222.741 485.587 222.842 484.913 223.037 484.295C223.239 483.676 223.519 483.139 223.877 482.684C224.242 482.221 224.678 481.867 225.186 481.619C225.693 481.365 226.257 481.238 226.875 481.238C227.396 481.238 227.865 481.31 228.281 481.453C228.704 481.596 229.069 481.827 229.375 482.146C229.681 482.459 229.912 482.869 230.068 483.377C230.231 483.878 230.312 484.49 230.312 485.213V492H227.949V485.193C227.949 484.686 227.874 484.282 227.725 483.982C227.581 483.683 227.37 483.468 227.09 483.338C226.81 483.201 226.468 483.133 226.064 483.133C225.641 483.133 225.267 483.217 224.941 483.387C224.622 483.556 224.355 483.787 224.141 484.08C223.926 484.373 223.763 484.712 223.652 485.096C223.548 485.48 223.496 485.89 223.496 486.326ZM235.049 483.582V492H232.695V481.434H234.912L235.049 483.582ZM234.668 486.326L233.867 486.316C233.867 485.587 233.958 484.913 234.141 484.295C234.323 483.676 234.59 483.139 234.941 482.684C235.293 482.221 235.729 481.867 236.25 481.619C236.777 481.365 237.386 481.238 238.076 481.238C238.558 481.238 238.997 481.31 239.395 481.453C239.798 481.59 240.146 481.808 240.439 482.107C240.739 482.407 240.967 482.791 241.123 483.26C241.286 483.729 241.367 484.295 241.367 484.959V492H239.014V485.164C239.014 484.65 238.936 484.246 238.779 483.953C238.63 483.66 238.411 483.452 238.125 483.328C237.845 483.198 237.51 483.133 237.119 483.133C236.676 483.133 236.299 483.217 235.986 483.387C235.68 483.556 235.43 483.787 235.234 484.08C235.039 484.373 234.896 484.712 234.805 485.096C234.714 485.48 234.668 485.89 234.668 486.326ZM241.221 485.701L240.117 485.945C240.117 485.307 240.205 484.705 240.381 484.139C240.563 483.566 240.827 483.064 241.172 482.635C241.523 482.199 241.956 481.857 242.471 481.609C242.985 481.362 243.574 481.238 244.238 481.238C244.779 481.238 245.26 481.313 245.684 481.463C246.113 481.606 246.478 481.834 246.777 482.146C247.077 482.459 247.305 482.866 247.461 483.367C247.617 483.862 247.695 484.461 247.695 485.164V492H245.332V485.154C245.332 484.62 245.254 484.207 245.098 483.914C244.948 483.621 244.733 483.419 244.453 483.309C244.173 483.191 243.838 483.133 243.447 483.133C243.083 483.133 242.76 483.201 242.48 483.338C242.207 483.468 241.976 483.654 241.787 483.895C241.598 484.129 241.455 484.399 241.357 484.705C241.266 485.011 241.221 485.343 241.221 485.701ZM256.074 489.881V484.842C256.074 484.464 256.006 484.139 255.869 483.865C255.732 483.592 255.524 483.38 255.244 483.23C254.971 483.081 254.626 483.006 254.209 483.006C253.825 483.006 253.493 483.071 253.213 483.201C252.933 483.331 252.715 483.507 252.559 483.729C252.402 483.95 252.324 484.201 252.324 484.48H249.98C249.98 484.064 250.081 483.66 250.283 483.27C250.485 482.879 250.778 482.531 251.162 482.225C251.546 481.919 252.005 481.678 252.539 481.502C253.073 481.326 253.672 481.238 254.336 481.238C255.13 481.238 255.833 481.372 256.445 481.639C257.064 481.906 257.549 482.309 257.9 482.85C258.258 483.383 258.438 484.054 258.438 484.861V489.559C258.438 490.04 258.47 490.473 258.535 490.857C258.607 491.235 258.708 491.564 258.838 491.844V492H256.426C256.315 491.746 256.227 491.424 256.162 491.033C256.104 490.636 256.074 490.252 256.074 489.881ZM256.416 485.574L256.436 487.029H254.746C254.31 487.029 253.926 487.072 253.594 487.156C253.262 487.234 252.985 487.352 252.764 487.508C252.542 487.664 252.376 487.853 252.266 488.074C252.155 488.296 252.1 488.546 252.1 488.826C252.1 489.106 252.165 489.363 252.295 489.598C252.425 489.826 252.614 490.005 252.861 490.135C253.115 490.265 253.421 490.33 253.779 490.33C254.261 490.33 254.681 490.232 255.039 490.037C255.404 489.835 255.69 489.591 255.898 489.305C256.107 489.012 256.217 488.735 256.23 488.475L256.992 489.52C256.914 489.786 256.781 490.073 256.592 490.379C256.403 490.685 256.156 490.978 255.85 491.258C255.55 491.531 255.189 491.756 254.766 491.932C254.349 492.107 253.867 492.195 253.32 492.195C252.63 492.195 252.015 492.059 251.475 491.785C250.934 491.505 250.511 491.131 250.205 490.662C249.899 490.187 249.746 489.65 249.746 489.051C249.746 488.491 249.85 487.996 250.059 487.566C250.273 487.13 250.586 486.766 250.996 486.473C251.413 486.18 251.921 485.958 252.52 485.809C253.118 485.652 253.802 485.574 254.57 485.574H256.416ZM263.232 483.689V492H260.879V481.434H263.096L263.232 483.689ZM262.812 486.326L262.051 486.316C262.057 485.568 262.161 484.881 262.363 484.256C262.572 483.631 262.858 483.094 263.223 482.645C263.594 482.195 264.036 481.85 264.551 481.609C265.065 481.362 265.638 481.238 266.27 481.238C266.777 481.238 267.236 481.31 267.646 481.453C268.063 481.59 268.418 481.814 268.711 482.127C269.01 482.439 269.238 482.846 269.395 483.348C269.551 483.842 269.629 484.451 269.629 485.174V492H267.266V485.164C267.266 484.656 267.191 484.256 267.041 483.963C266.898 483.663 266.686 483.452 266.406 483.328C266.133 483.198 265.791 483.133 265.381 483.133C264.977 483.133 264.616 483.217 264.297 483.387C263.978 483.556 263.708 483.787 263.486 484.08C263.271 484.373 263.105 484.712 262.988 485.096C262.871 485.48 262.812 485.89 262.812 486.326Z" fill="#7E6DD1"/>
<g clip-path="url(#clip0_1_12)">
<path d="M105.334 400.962H269.666C277.369 387.302 281.769 371.531 281.769 354.732C281.769 302.669 239.563 260.463 187.5 260.463C135.437 260.463 93.232 302.669 93.232 354.732C93.2317 371.532 97.6315 387.302 105.334 400.962Z" fill="#FFC839"/>
<path d="M179.339 384.674C179.339 384.674 185.053 387.18 187.5 390.776C189.947 387.18 195.661 384.674 195.661 384.674L218.666 372.973C216.736 372.378 214.773 371.845 212.767 371.382C208.861 367.476 207.87 360.07 207.692 354.889C205.654 357.263 203.514 359.25 201.47 360.837C197.487 363.93 192.572 365.61 187.51 365.61C182.448 365.61 177.533 363.93 173.55 360.837C171.506 359.249 169.367 357.263 167.328 354.889C167.15 360.07 166.159 367.476 162.253 371.382C160.242 371.846 158.275 372.38 156.341 372.977L179.339 384.674Z" fill="#FFAA7B"/>
<path d="M186.554 365.589C181.832 365.392 177.282 363.734 173.55 360.837C171.506 359.249 169.366 357.263 167.328 354.889C167.173 359.395 166.401 365.583 163.633 369.689C167.57 377.636 172.672 384.285 177.831 380.807C184.194 376.518 186.081 370.143 186.554 365.589Z" fill="#FC9460"/>
<path d="M180.148 383.454L169.941 378.263C165.598 379.584 159.667 383.032 159.458 392.034C156.525 392.542 141.756 395.791 141.756 409.589V437.17C155.303 444.704 170.899 449 187.5 449C187.829 449 188.156 448.991 188.485 448.988C188.485 427.981 188.485 394.96 188.485 391.791C188.485 387.11 180.148 383.454 180.148 383.454Z" fill="#7E6DD1"/>
<path d="M142.333 437.486C142.333 430.257 142.333 418.892 142.333 409.589C142.333 394.682 160.029 392.529 160.029 392.529C160.029 383.065 166.384 379.775 170.665 378.631L158.364 372.374C132.024 380.963 119.443 384.398 112.884 389.08C119.713 393.741 130.452 403.423 130.452 418.235V429.78C134.201 432.634 138.173 435.211 142.333 437.486Z" fill="#7255CE"/>
<path d="M216.636 372.374L194.852 383.454C194.852 383.454 186.515 387.11 186.515 391.791V448.988C186.844 448.991 187.171 449 187.5 449C191.922 449 196.271 448.691 200.531 448.102L200.528 448.1L227.378 440.167V440.168C233.486 437.311 239.238 433.822 244.547 429.779C244.547 425.764 244.547 421.848 244.547 418.235C244.547 403.423 255.287 393.741 262.116 389.08C255.557 384.398 242.977 380.963 216.636 372.374Z" fill="#9589E8"/>
<path d="M209.9 362.476C209.457 362.232 208.907 362.487 208.806 362.983C208.148 366.207 205.291 376.364 194.684 382.393C193.639 382.987 193.389 384.38 194.179 385.286L204.898 397.562C207.123 400.126 211.22 399.664 212.827 396.674C215.542 391.618 219.326 383.923 222.126 375.649C222.628 374.168 222.271 372.53 221.214 371.377C217.954 367.821 214.134 364.813 209.9 362.476Z" fill="#B5B0F7"/>
<path d="M180.323 382.393C177.77 380.943 175.671 379.252 173.939 377.478C171.358 377.697 160.132 379.353 159.489 391.439C160.445 393.385 161.361 395.151 162.179 396.675C163.786 399.665 167.883 400.126 170.109 397.563L180.827 385.286C181.617 384.381 181.367 382.987 180.323 382.393Z" fill="#9589E8"/>
<path d="M166.2 362.983C166.099 362.487 165.548 362.232 165.106 362.476C160.872 364.813 157.052 367.821 153.792 371.378C152.735 372.531 152.379 374.168 152.88 375.65C154.997 381.904 157.675 387.826 160.029 392.529C160.03 378.262 174.479 378.021 174.479 378.021L174.479 378.02C168.585 372.299 166.716 365.511 166.2 362.983Z" fill="#7E6DD1"/>
<path d="M243.778 430.363C254.326 422.5 263.17 412.482 269.666 400.962C268.94 398.803 268.155 396.822 267.302 395.083C266.073 392.576 264.367 390.611 261.736 388.815C254.935 393.369 243.778 403.139 243.778 418.235V430.363Z" fill="#B5B0F7"/>
<path d="M113.263 388.815C110.633 390.611 108.927 392.576 107.698 395.083C106.845 396.822 106.06 398.803 105.334 400.962C111.829 412.482 120.673 422.501 131.222 430.363C131.222 426.143 131.222 422.023 131.222 418.235C131.222 403.139 120.065 393.369 113.263 388.815Z" fill="#7E6DD1"/>
<path d="M222.761 413.842H204.869C202.33 413.842 200.252 415.92 200.252 418.459V446.547C200.252 447.092 200.352 447.613 200.528 448.1C210.001 446.79 219.023 444.074 227.378 440.167V418.459C227.378 415.92 225.3 413.842 222.761 413.842Z" fill="#B5B0F7"/>
<path d="M251.943 285.939C242.994 292.554 231.858 303.707 236.579 317.681C243.889 339.321 210.799 352.969 247.737 368.654C262.506 374.925 271.087 381.469 276.073 387.065C279.756 376.98 281.769 366.091 281.769 354.732C281.768 327.594 270.297 303.138 251.943 285.939Z" fill="#FFDD40"/>
<path d="M123.057 285.939C132.006 292.554 143.142 303.707 138.421 317.681C131.111 339.321 164.201 352.969 127.263 368.654C112.494 374.925 103.912 381.469 98.927 387.065C95.244 376.98 93.2313 366.091 93.2313 354.732C93.2317 327.594 104.703 303.138 123.057 285.939Z" fill="#FFDD40"/>
<path d="M152.437 312.591H222.953C223.079 307.511 223.926 294.062 229.236 284.482C229.974 283.15 230.106 281.567 229.592 280.133C227.665 274.761 221.91 262.202 209.358 258.852C208.689 258.674 208.513 257.809 209.057 257.381L210.938 255.903C211.791 255.233 211.463 253.872 210.398 253.667C201.137 251.881 170.381 247.607 160.827 267.252C160.257 268.424 159.182 269.268 157.92 269.595C155.14 270.314 150.14 272.483 146.881 278.981C146.244 280.252 146.135 281.726 146.592 283.073C148.176 287.74 152.035 300.273 152.437 312.591Z" fill="#56415E"/>
<path d="M183.99 281.539C172.727 264.375 192.428 252.007 192.428 252.007C180.48 252.162 166.678 255.221 160.827 267.252C160.257 268.424 159.182 269.268 157.92 269.595C155.14 270.314 150.14 272.483 146.881 278.981C146.244 280.252 146.135 281.726 146.592 283.073C148.176 287.74 152.035 300.273 152.437 312.591H168.851C179.24 304.176 190.682 291.739 183.99 281.539Z" fill="#45304C"/>
<path d="M225.691 310.536C224.112 309.09 220.583 309.823 219.223 310.709C219.521 312.564 219.538 314.461 219.28 316.335L217.676 328.021C217.676 328.963 217.646 329.887 217.591 330.795C221.504 331.975 223.832 328.463 224.16 326.052C224.301 325.015 224.531 323.992 224.851 322.994C225.892 319.744 229.646 314.161 225.691 310.536Z" fill="#FFAA7B"/>
<path d="M149.31 310.536C150.888 309.09 154.418 309.823 155.778 310.709C155.48 312.564 155.463 314.461 155.72 316.335L157.325 328.021C157.325 328.963 157.354 329.887 157.409 330.795C153.496 331.975 151.168 328.463 150.841 326.052C150.7 325.015 150.469 323.992 150.15 322.994C149.109 319.744 145.354 314.161 149.31 310.536Z" fill="#FC9460"/>
<path d="M218.642 307.098C218.28 306.156 217.825 305.202 217.252 304.302C216.28 302.778 215.853 300.975 215.983 299.177C216.357 294.006 216.157 283.894 209.369 280.839C203.602 278.244 196.529 279.747 192.018 281.247C189.196 282.185 186.148 282.217 183.31 281.348C178.17 285.293 178.049 294.174 178.396 298.903C178.529 300.711 178.084 302.519 177.107 304.052C176.545 304.935 176.094 305.87 175.734 306.796C174.565 309.798 174.224 313.053 174.662 316.242L176.288 328.085C176.288 345.112 185.377 356.685 193.108 362.689C194.25 363.575 195.47 364.337 196.745 364.988C198.416 364.247 200.001 363.306 201.46 362.173C209.09 356.248 218.06 344.825 218.06 328.021L219.664 316.335C220.093 313.22 219.768 310.038 218.642 307.098Z" fill="#FFC7AB"/>
<path d="M193.163 362.173C185.533 356.248 176.563 344.825 176.563 328.021L174.958 316.332C174.526 313.186 174.862 309.973 176.016 307.01C176.371 306.097 176.815 305.174 177.371 304.302C178.336 302.789 178.775 301.005 178.644 299.221C178.29 294.405 178.428 285.227 183.99 281.539C183.652 281.453 183.316 281.357 182.983 281.246C178.471 279.747 171.398 278.244 165.631 280.839C158.824 283.902 158.642 294.064 159.021 299.221C159.152 301.005 158.713 302.789 157.748 304.302C157.193 305.174 156.748 306.097 156.392 307.01C155.239 309.973 154.903 313.186 155.335 316.332L156.94 328.021C156.94 344.825 165.91 356.247 173.54 362.173C177.523 365.265 182.438 366.945 187.5 366.945C190.919 366.945 194.269 366.176 197.312 364.726C195.849 364.029 194.457 363.177 193.163 362.173Z" fill="#FFAA7B"/>
</g>
<path d="M151.875 799.297H153.828C153.766 800.042 153.557 800.706 153.203 801.289C152.849 801.867 152.352 802.323 151.711 802.656C151.07 802.99 150.292 803.156 149.375 803.156C148.672 803.156 148.039 803.031 147.477 802.781C146.914 802.526 146.432 802.167 146.031 801.703C145.63 801.234 145.323 800.669 145.109 800.008C144.901 799.346 144.797 798.607 144.797 797.789V796.844C144.797 796.026 144.904 795.286 145.117 794.625C145.336 793.964 145.648 793.398 146.055 792.93C146.461 792.456 146.948 792.094 147.516 791.844C148.089 791.594 148.732 791.469 149.445 791.469C150.352 791.469 151.117 791.635 151.742 791.969C152.367 792.302 152.852 792.763 153.195 793.352C153.544 793.94 153.758 794.615 153.836 795.375H151.883C151.831 794.885 151.716 794.466 151.539 794.117C151.367 793.768 151.112 793.503 150.773 793.32C150.435 793.133 149.992 793.039 149.445 793.039C148.997 793.039 148.607 793.122 148.273 793.289C147.94 793.456 147.661 793.701 147.438 794.023C147.214 794.346 147.044 794.745 146.93 795.219C146.82 795.688 146.766 796.224 146.766 796.828V797.789C146.766 798.362 146.815 798.883 146.914 799.352C147.018 799.815 147.174 800.214 147.383 800.547C147.596 800.88 147.867 801.138 148.195 801.32C148.523 801.503 148.917 801.594 149.375 801.594C149.932 801.594 150.383 801.505 150.727 801.328C151.076 801.151 151.339 800.893 151.516 800.555C151.698 800.211 151.818 799.792 151.875 799.297ZM155.062 798.867V798.688C155.062 798.078 155.151 797.513 155.328 796.992C155.505 796.466 155.76 796.01 156.094 795.625C156.432 795.234 156.844 794.932 157.328 794.719C157.818 794.5 158.37 794.391 158.984 794.391C159.604 794.391 160.156 794.5 160.641 794.719C161.13 794.932 161.544 795.234 161.883 795.625C162.221 796.01 162.479 796.466 162.656 796.992C162.833 797.513 162.922 798.078 162.922 798.688V798.867C162.922 799.477 162.833 800.042 162.656 800.562C162.479 801.083 162.221 801.539 161.883 801.93C161.544 802.315 161.133 802.617 160.648 802.836C160.164 803.049 159.615 803.156 159 803.156C158.38 803.156 157.826 803.049 157.336 802.836C156.852 802.617 156.44 802.315 156.102 801.93C155.763 801.539 155.505 801.083 155.328 800.562C155.151 800.042 155.062 799.477 155.062 798.867ZM156.945 798.688V798.867C156.945 799.247 156.984 799.607 157.062 799.945C157.141 800.284 157.263 800.581 157.43 800.836C157.596 801.091 157.81 801.292 158.07 801.438C158.331 801.583 158.641 801.656 159 801.656C159.349 801.656 159.651 801.583 159.906 801.438C160.167 801.292 160.38 801.091 160.547 800.836C160.714 800.581 160.836 800.284 160.914 799.945C160.997 799.607 161.039 799.247 161.039 798.867V798.688C161.039 798.312 160.997 797.958 160.914 797.625C160.836 797.286 160.711 796.987 160.539 796.727C160.372 796.466 160.159 796.263 159.898 796.117C159.643 795.966 159.339 795.891 158.984 795.891C158.63 795.891 158.323 795.966 158.062 796.117C157.807 796.263 157.596 796.466 157.43 796.727C157.263 796.987 157.141 797.286 157.062 797.625C156.984 797.958 156.945 798.312 156.945 798.688ZM166.391 796.172V806.25H164.508V794.547H166.242L166.391 796.172ZM171.898 798.695V798.859C171.898 799.474 171.826 800.044 171.68 800.57C171.539 801.091 171.328 801.547 171.047 801.938C170.771 802.323 170.43 802.622 170.023 802.836C169.617 803.049 169.148 803.156 168.617 803.156C168.091 803.156 167.63 803.06 167.234 802.867C166.844 802.669 166.513 802.391 166.242 802.031C165.971 801.672 165.753 801.25 165.586 800.766C165.424 800.276 165.31 799.74 165.242 799.156V798.523C165.31 797.904 165.424 797.341 165.586 796.836C165.753 796.331 165.971 795.896 166.242 795.531C166.513 795.167 166.844 794.885 167.234 794.688C167.625 794.49 168.081 794.391 168.602 794.391C169.133 794.391 169.604 794.495 170.016 794.703C170.427 794.906 170.773 795.198 171.055 795.578C171.336 795.953 171.547 796.406 171.688 796.938C171.828 797.464 171.898 798.049 171.898 798.695ZM170.016 798.859V798.695C170.016 798.305 169.979 797.943 169.906 797.609C169.833 797.271 169.719 796.974 169.562 796.719C169.406 796.464 169.206 796.266 168.961 796.125C168.721 795.979 168.432 795.906 168.094 795.906C167.76 795.906 167.474 795.964 167.234 796.078C166.995 796.188 166.794 796.341 166.633 796.539C166.471 796.737 166.346 796.969 166.258 797.234C166.169 797.495 166.107 797.779 166.07 798.086V799.602C166.133 799.977 166.24 800.32 166.391 800.633C166.542 800.945 166.755 801.195 167.031 801.383C167.312 801.565 167.672 801.656 168.109 801.656C168.448 801.656 168.737 801.583 168.977 801.438C169.216 801.292 169.411 801.091 169.562 800.836C169.719 800.576 169.833 800.276 169.906 799.938C169.979 799.599 170.016 799.24 170.016 798.859ZM175.859 802.078L178.156 794.547H180.172L176.781 804.289C176.703 804.497 176.602 804.724 176.477 804.969C176.352 805.214 176.188 805.445 175.984 805.664C175.786 805.888 175.539 806.068 175.242 806.203C174.945 806.344 174.586 806.414 174.164 806.414C173.997 806.414 173.836 806.398 173.68 806.367C173.529 806.341 173.385 806.312 173.25 806.281L173.242 804.844C173.294 804.849 173.357 804.854 173.43 804.859C173.508 804.865 173.57 804.867 173.617 804.867C173.93 804.867 174.19 804.828 174.398 804.75C174.607 804.677 174.776 804.557 174.906 804.391C175.042 804.224 175.156 804 175.25 803.719L175.859 802.078ZM174.562 794.547L176.57 800.875L176.906 802.859L175.602 803.195L172.531 794.547H174.562ZM183.141 796.156V803H181.258V794.547H183.055L183.141 796.156ZM185.727 794.492L185.711 796.242C185.596 796.221 185.471 796.206 185.336 796.195C185.206 796.185 185.076 796.18 184.945 796.18C184.622 796.18 184.339 796.227 184.094 796.32C183.849 796.409 183.643 796.539 183.477 796.711C183.315 796.878 183.19 797.081 183.102 797.32C183.013 797.56 182.961 797.828 182.945 798.125L182.516 798.156C182.516 797.625 182.568 797.133 182.672 796.68C182.776 796.227 182.932 795.828 183.141 795.484C183.354 795.141 183.62 794.872 183.938 794.68C184.26 794.487 184.633 794.391 185.055 794.391C185.169 794.391 185.292 794.401 185.422 794.422C185.557 794.443 185.659 794.466 185.727 794.492ZM188.922 794.547V803H187.031V794.547H188.922ZM186.906 792.328C186.906 792.042 187 791.805 187.188 791.617C187.38 791.424 187.646 791.328 187.984 791.328C188.318 791.328 188.581 791.424 188.773 791.617C188.966 791.805 189.062 792.042 189.062 792.328C189.062 792.609 188.966 792.844 188.773 793.031C188.581 793.219 188.318 793.312 187.984 793.312C187.646 793.312 187.38 793.219 187.188 793.031C187 792.844 186.906 792.609 186.906 792.328ZM196.398 794.547H198.109V802.766C198.109 803.526 197.948 804.172 197.625 804.703C197.302 805.234 196.852 805.638 196.273 805.914C195.695 806.195 195.026 806.336 194.266 806.336C193.943 806.336 193.583 806.289 193.188 806.195C192.797 806.102 192.417 805.951 192.047 805.742C191.682 805.539 191.378 805.271 191.133 804.938L192.016 803.828C192.318 804.188 192.651 804.451 193.016 804.617C193.38 804.784 193.763 804.867 194.164 804.867C194.596 804.867 194.964 804.786 195.266 804.625C195.573 804.469 195.81 804.237 195.977 803.93C196.143 803.622 196.227 803.247 196.227 802.805V796.461L196.398 794.547ZM190.656 798.867V798.703C190.656 798.062 190.734 797.479 190.891 796.953C191.047 796.422 191.271 795.966 191.562 795.586C191.854 795.201 192.208 794.906 192.625 794.703C193.042 794.495 193.513 794.391 194.039 794.391C194.586 794.391 195.052 794.49 195.438 794.688C195.828 794.885 196.154 795.169 196.414 795.539C196.674 795.904 196.878 796.341 197.023 796.852C197.174 797.357 197.286 797.919 197.359 798.539V799.062C197.292 799.667 197.177 800.219 197.016 800.719C196.854 801.219 196.641 801.651 196.375 802.016C196.109 802.38 195.781 802.661 195.391 802.859C195.005 803.057 194.549 803.156 194.023 803.156C193.508 803.156 193.042 803.049 192.625 802.836C192.214 802.622 191.859 802.323 191.562 801.938C191.271 801.552 191.047 801.099 190.891 800.578C190.734 800.052 190.656 799.482 190.656 798.867ZM192.539 798.703V798.867C192.539 799.253 192.576 799.612 192.648 799.945C192.727 800.279 192.844 800.573 193 800.828C193.161 801.078 193.365 801.276 193.609 801.422C193.859 801.562 194.154 801.633 194.492 801.633C194.935 801.633 195.297 801.539 195.578 801.352C195.865 801.164 196.083 800.911 196.234 800.594C196.391 800.271 196.5 799.911 196.562 799.516V798.102C196.531 797.794 196.466 797.508 196.367 797.242C196.273 796.977 196.146 796.745 195.984 796.547C195.823 796.344 195.62 796.188 195.375 796.078C195.13 795.964 194.841 795.906 194.508 795.906C194.169 795.906 193.875 795.979 193.625 796.125C193.375 796.271 193.169 796.471 193.008 796.727C192.852 796.982 192.734 797.279 192.656 797.617C192.578 797.956 192.539 798.318 192.539 798.703ZM201.922 791V803H200.047V791H201.922ZM201.594 798.461L200.984 798.453C200.99 797.87 201.07 797.331 201.227 796.836C201.388 796.341 201.612 795.911 201.898 795.547C202.19 795.177 202.539 794.893 202.945 794.695C203.352 794.492 203.802 794.391 204.297 794.391C204.714 794.391 205.089 794.448 205.422 794.562C205.76 794.677 206.052 794.862 206.297 795.117C206.542 795.367 206.727 795.695 206.852 796.102C206.982 796.503 207.047 796.992 207.047 797.57V803H205.156V797.555C205.156 797.148 205.096 796.826 204.977 796.586C204.862 796.346 204.693 796.174 204.469 796.07C204.245 795.961 203.971 795.906 203.648 795.906C203.31 795.906 203.01 795.974 202.75 796.109C202.495 796.245 202.281 796.43 202.109 796.664C201.938 796.898 201.807 797.169 201.719 797.477C201.635 797.784 201.594 798.112 201.594 798.461ZM212.828 794.547V795.922H208.062V794.547H212.828ZM209.438 792.477H211.32V800.664C211.32 800.924 211.357 801.125 211.43 801.266C211.508 801.401 211.615 801.492 211.75 801.539C211.885 801.586 212.044 801.609 212.227 801.609C212.357 801.609 212.482 801.602 212.602 801.586C212.721 801.57 212.818 801.555 212.891 801.539L212.898 802.977C212.742 803.023 212.56 803.065 212.352 803.102C212.148 803.138 211.914 803.156 211.648 803.156C211.216 803.156 210.833 803.081 210.5 802.93C210.167 802.773 209.906 802.521 209.719 802.172C209.531 801.823 209.438 801.359 209.438 800.781V792.477Z" fill="black"/>
<g clip-path="url(#clip1_1_12)">
<path d="M224.5 792C220.916 792 218 794.916 218 798.5C218 802.084 220.916 805 224.5 805C228.084 805 231 802.084 231 798.5C231 794.916 228.084 792 224.5 792ZM224.5 804.154C221.382 804.154 218.846 801.618 218.846 798.5C218.846 795.382 221.382 792.846 224.5 792.846C227.618 792.846 230.154 795.382 230.154 798.5C230.154 801.618 227.618 804.154 224.5 804.154Z" fill="black"/>
<path d="M227.152 799.559C226.955 799.433 226.693 799.491 226.568 799.688C226.159 800.326 225.463 800.707 224.706 800.707C223.489 800.707 222.499 799.717 222.499 798.5C222.499 797.283 223.489 796.293 224.706 796.293C225.441 796.293 226.125 796.657 226.537 797.266C226.668 797.46 226.931 797.51 227.124 797.38C227.318 797.249 227.369 796.986 227.238 796.793C226.669 795.95 225.722 795.447 224.706 795.447C223.023 795.447 221.653 796.817 221.653 798.5C221.653 800.183 223.023 801.553 224.706 801.553C225.753 801.553 226.715 801.026 227.28 800.143C227.406 799.946 227.348 799.685 227.152 799.559Z" fill="black"/>
</g>
<defs>
<clipPath id="clip0_1_12">
<rect width="197" height="197" fill="white" transform="translate(89 252)"/>
</clipPath>
<clipPath id="clip1_1_12">
<rect width="13" height="13" fill="white" transform="translate(218 792)"/>
</clipPath>
</defs>
</svg>
